<?xml version="1.0" encoding="iso-8859-1"?>
<!-- Uploaded to: SVG Repo, www.svgrepo.com, Generator: SVG Repo Mixer Tools -->
<svg fill="#000000" height="800px" width="800px" version="1.1" id="Layer_1" xmlns="http://www.w3.org/2000/svg" xmlns:xlink="http://www.w3.org/1999/xlink" 
	 viewBox="0 0 512.247 512.247" xml:space="preserve">
<g transform="translate(1 1)">
	<g>
		<g>
			<path d="M255,353.257c-18.773,0-34.133,15.36-34.133,34.133c0,15.83,10.921,29.232,25.6,33.046v18.154
				c0,5.12,3.413,8.533,8.533,8.533s8.533-3.413,8.533-8.533v-18.154c14.679-3.814,25.6-17.216,25.6-33.046
				C289.133,368.617,273.773,353.257,255,353.257z M255,404.457c-9.387,0-17.067-7.68-17.067-17.067s7.68-17.067,17.067-17.067
				s17.067,7.68,17.067,17.067S264.387,404.457,255,404.457z"/>
			<path d="M434.2,150.164c-5.12-76.8-68.267-138.24-145.067-138.24c-46.021,0-90.337,22.982-118.502,59.593
				c-1.159-0.591-2.335-1.154-3.528-1.687c-9.445-4.667-20.167-6.706-31.57-6.706c-13.333,0-25.833,3.333-36.719,9.219
				c-2.177,1.177-4.29,2.456-6.331,3.831c-3.063,2.063-5.966,4.341-8.688,6.813c-1.815,1.648-3.55,3.383-5.198,5.198
				c-2.473,2.723-4.751,5.626-6.813,8.688c-1.375,2.042-2.654,4.154-3.831,6.331c-1.766,3.266-3.302,6.677-4.587,10.212
				c-0.857,2.357-1.602,4.769-2.23,7.23c-1.569,6.152-2.402,12.611-2.402,19.277c0,0.853,0,2.56,0,3.413
				C23.747,162.964-1,203.07-1,244.03c0,59.733,49.493,109.227,109.227,109.227h10.24v76.8c0,37.547,30.72,68.267,68.267,68.267
				h136.533c37.547,0,68.267-30.72,68.267-68.267v-76.8h13.653c52.053,0,97.28-37.547,104.96-87.04
				C517.827,214.164,484.547,162.964,434.2,150.164z M374.467,430.057c0,28.16-23.04,51.2-51.2,51.2H186.733
				c-28.16,0-51.2-23.04-51.2-51.2v-76.8v-31.573c0-1.707,0.853-2.56,2.56-2.56h23.04h34.133h119.467h34.133h23.04
				c1.707,0,2.56,0.853,2.56,2.56v31.573V430.057z M340.333,302.057h-17.067v-25.6c0-37.547-30.72-68.267-68.267-68.267
				c-37.547,0-68.267,30.72-68.267,68.267v25.6h-17.067v-25.6c0-46.933,38.4-85.333,85.333-85.333s85.333,38.4,85.333,85.333
				V302.057z M203.8,302.057v-25.6c0-28.16,23.04-51.2,51.2-51.2c28.16,0,51.2,23.04,51.2,51.2v25.6H203.8z M493.08,263.657
				c-6.827,41.813-44.373,72.533-87.893,72.533h-13.653v-14.507c0-11.093-8.533-19.627-19.627-19.627H357.4v-25.6
				c0-56.32-46.08-102.4-102.4-102.4s-102.4,46.08-102.4,102.4v25.6h-14.507c-11.093,0-19.627,8.533-19.627,19.627v14.507h-10.24
				c-50.347,0-92.16-41.813-92.16-92.16c0-35.84,23.04-72.533,54.613-87.04l5.12-2.56v-5.12c0-0.853,0-2.56,0-4.267v-0.853v-1.707
				c0-0.853,0-1.707,0-2.56c0-33.28,26.453-59.733,59.733-59.733c0.929,0,1.851,0.028,2.769,0.069
				c0.261,0.012,0.521,0.027,0.782,0.042c0.722,0.041,1.441,0.095,2.156,0.161c0.212,0.02,0.424,0.035,0.635,0.057
				c0.91,0.094,1.814,0.206,2.71,0.339c0.132,0.02,0.263,0.044,0.396,0.064c0.837,0.13,1.67,0.275,2.495,0.439
				c0.103,0.02,0.207,0.04,0.31,0.061c27.292,5.568,47.481,29.429,47.481,58.502c0,5.12,3.413,8.533,8.533,8.533
				c5.12,0,8.533-3.413,8.533-8.533c0-23.562-10.422-44.506-26.929-58.552C209.931,49.27,249.958,28.99,289.987,28.99
				c66.281,0,121.567,52.575,126.75,119.347c-8.701-0.661-22.069-1.084-35.444,0.973c-4.267,0-7.68,5.12-6.827,9.387
				c0.853,3.413,4.267,6.827,8.533,6.827h0.853c19.625-2.56,40.104,0,40.107,0h0C469.187,174.057,499.907,217.577,493.08,263.657z"
				/>
		</g>
	</g>
</g>
</svg>